<svg width="56" height="56" viewBox="0 0 56 56" fill="none" xmlns="http://www.w3.org/2000/svg">
<g filter="url(#filter0_dd_6337_3104)">
<rect x="4" y="2" width="48" height="48" rx="24" fill="#FBD786" shape-rendering="crispEdges"/>
<path d="M13.7881 29.9829L16.895 18.5703H20.9248L15.8901 33.5H13.2856L13.7881 29.9829ZM10.9683 18.5703L14.0752 29.9829L14.5981 33.5H11.9629L6.95898 18.5703H10.9683ZM29.3728 27.1528H25.5276L25.5071 24.7944H28.6243C29.1848 24.7944 29.6326 24.7329 29.9675 24.6099C30.3025 24.48 30.5452 24.292 30.6955 24.0459C30.8528 23.7998 30.9314 23.4922 30.9314 23.123C30.9314 22.6992 30.8528 22.3574 30.6955 22.0977C30.5383 21.8379 30.2888 21.6499 29.947 21.5337C29.6121 21.4106 29.178 21.3491 28.6448 21.3491H26.8811V33.5H23.282V18.5703H28.6448C29.5676 18.5703 30.3913 18.6558 31.116 18.8267C31.8406 18.9907 32.4558 19.2437 32.9617 19.5854C33.4744 19.9272 33.864 20.3579 34.1306 20.8774C34.3972 21.3901 34.5305 21.9951 34.5305 22.6924C34.5305 23.3008 34.4006 23.8716 34.1409 24.4048C33.8811 24.938 33.447 25.3721 32.8386 25.707C32.2371 26.0352 31.4133 26.2061 30.3674 26.2197L29.3728 27.1528ZM29.2292 33.5H24.656L25.8865 30.7314H29.2292C29.7214 30.7314 30.1145 30.6562 30.4084 30.5059C30.7092 30.3486 30.9246 30.1436 31.0544 29.8906C31.1912 29.6309 31.2595 29.3438 31.2595 29.0293C31.2595 28.6465 31.1946 28.3149 31.0647 28.0347C30.9416 27.7544 30.7434 27.5391 30.47 27.3887C30.1965 27.2314 29.8308 27.1528 29.3728 27.1528H26.3479L26.3684 24.7944H29.988L30.8288 25.7378C31.8269 25.6968 32.6164 25.8369 33.1975 26.1582C33.7854 26.4795 34.2058 26.9033 34.4587 27.4297C34.7117 27.9561 34.8381 28.5063 34.8381 29.0806C34.8381 30.0581 34.6262 30.875 34.2024 31.5312C33.7854 32.1875 33.1599 32.6797 32.3259 33.0078C31.4919 33.3359 30.4597 33.5 29.2292 33.5ZM48.3721 30.7314V33.5H40.415V30.7314H48.3721ZM41.6968 18.5703V33.5H38.0976V18.5703H41.6968ZM47.3467 24.4971V27.1733H40.415V24.4971H47.3467ZM48.4028 18.5703V21.3491H40.415V18.5703H48.4028Z" fill="#6B4A00"/>
</g>
<defs>
<filter id="filter0_dd_6337_3104" x="0" y="0" width="56" height="56" filterUnits="userSpaceOnUse" color-interpolation-filters="sRGB">
<feFlood flood-opacity="0" result="BackgroundImageFix"/>
<feColorMatrix in="SourceAlpha" type="matrix" values="0 0 0 0 0 0 0 0 0 0 0 0 0 0 0 0 0 0 127 0" result="hardAlpha"/>
<feOffset/>
<feGaussianBlur stdDeviation="1"/>
<feComposite in2="hardAlpha" operator="out"/>
<feColorMatrix type="matrix" values="0 0 0 0 0 0 0 0 0 0 0 0 0 0 0 0 0 0 0.1 0"/>
<feBlend mode="normal" in2="BackgroundImageFix" result="effect1_dropShadow_6337_3104"/>
<feColorMatrix in="SourceAlpha" type="matrix" values="0 0 0 0 0 0 0 0 0 0 0 0 0 0 0 0 0 0 127 0" result="hardAlpha"/>
<feOffset dy="2"/>
<feGaussianBlur stdDeviation="2"/>
<feComposite in2="hardAlpha" operator="out"/>
<feColorMatrix type="matrix" values="0 0 0 0 0.172549 0 0 0 0 0.243137 0 0 0 0 0.309804 0 0 0 0.15 0"/>
<feBlend mode="normal" in2="effect1_dropShadow_6337_3104" result="effect2_dropShadow_6337_3104"/>
<feBlend mode="normal" in="SourceGraphic" in2="effect2_dropShadow_6337_3104" result="shape"/>
</filter>
</defs>
</svg>
