<svg width="16" height="16" viewBox="0 0 16 16" fill="none" xmlns="http://www.w3.org/2000/svg">
<rect width="16" height="16" rx="8" fill="#FBD786"/>
<path d="M3.50105 10.291L2.08938 6.26356L1.60498 6.13208V5.70996H3.90933V6.139L3.34189 6.26356L4.11693 8.99695L4.13077 9.16303H4.17229L4.19305 8.99695L5.02345 6.26356L4.46293 6.139V5.70996H6.24828V6.13208L5.75004 6.26356L4.44217 10.291H3.50105Z" fill="black"/>
<path d="M6.29607 10.1941V9.7789L6.84275 9.64051V6.26356L6.29607 6.12516V5.70996H8.24058C8.92336 5.70996 9.41698 5.80453 9.72146 5.99368C10.0306 6.17821 10.1851 6.47808 10.1851 6.89328C10.1851 7.0409 10.1343 7.20006 10.0329 7.37075C9.93136 7.54145 9.75145 7.68907 9.4931 7.81363C9.67302 7.86899 9.82526 7.94742 9.94982 8.04891C10.0744 8.1504 10.1689 8.26804 10.2335 8.40183C10.2981 8.531 10.3304 8.67402 10.3304 8.83087C10.3304 9.27375 10.1828 9.61283 9.88754 9.8481C9.5969 10.0788 9.18631 10.1941 8.65578 10.1941H6.29607ZM8.08143 9.61975C8.47356 9.61975 8.75036 9.56439 8.91182 9.45367C9.07329 9.34295 9.15402 9.15611 9.15402 8.89315C9.15402 8.66248 9.09174 8.49179 8.96718 8.38107C8.84262 8.26574 8.60965 8.20807 8.26826 8.20807H7.95687V9.61975C7.97993 9.61975 8.00069 9.61975 8.01915 9.61975C8.04221 9.61975 8.06297 9.61975 8.08143 9.61975ZM7.95687 7.63371H8.29594C8.55429 7.63371 8.73652 7.57605 8.84262 7.46071C8.95334 7.34077 9.0087 7.17699 9.0087 6.9694C9.0087 6.50806 8.77112 6.2774 8.29594 6.2774C8.23597 6.2774 8.17369 6.27971 8.10911 6.28432C8.04452 6.28893 7.99377 6.29585 7.95687 6.30508V7.63371Z" fill="black"/>
<path d="M10.8035 10.1941V9.7789L11.3502 9.64051V6.26356L10.8035 6.12516V5.70996H14.3327V7.06628H13.8206L13.6407 6.28432H12.6788L12.4643 6.33276V7.64063H13.0387L13.2117 7.1424H13.5992V8.78935H13.2117L13.0387 8.22191H12.4643V9.61283C12.5289 9.61744 12.5843 9.62205 12.6304 9.62666C12.6765 9.62666 12.7319 9.62666 12.7965 9.62666H13.7099L13.9037 8.75475H14.395V10.1941H10.8035Z" fill="black"/>
</svg>
